<?xml version="1.0" encoding="utf-8"?>
<!-- Generator: Adobe Illustrator 24.0.1, SVG Export Plug-In . SVG Version: 6.00 Build 0)  -->
<svg version="1.1" id="Camada_1" xmlns="http://www.w3.org/2000/svg" xmlns:xlink="http://www.w3.org/1999/xlink" x="0px" y="0px"
	 viewBox="0 0 590.5 213.8" style="enable-background:new 0 0 590.5 213.8;" xml:space="preserve">
<style type="text/css">
	.st0{fill:#A2CE86;}
	.st1{fill:#23BCF9;}
</style>
<g>
	<path class="st0" d="M355.4,171.9c-20.1-16.1-17.3-31.2,7.8-46.7c-17.6-20.5-21-36.8-11.3-54.1c10.3-18.4,33.4-26.1,63.8-20.7
		c0.7-3,1.3-6.1,2.1-9.2c3-11.8,11.8-18.7,23.1-18.2c9.1,0.4,15.6,6.1,16.3,14.2c0.9,10.1-4,16.4-14.8,18.6
		c-0.6-1.6-1.1-3.4-1.9-4.9c-1.2-2.1-2.3-4.6-4.1-6c-4.7-3.5-9.4-2.9-13,1.8c-4,5.3,0.7,6.9,4.3,9c14.2,8.5,21.3,21.2,20.5,37.7
		c-0.8,16.5-9.2,28.4-24.2,35.4c-14.3,6.6-29.1,7.4-44.2,3.1c-4.1-1.2-8.3-2.8-10.1,2.8c-1.9,5.8,2.1,8.5,6.8,8.9
		c12,1,24,1.2,36,1.7c7.9,0.4,16,0.2,23.7,1.5c20,3.6,27.9,21.5,18.1,40.2c-5.6,10.6-15.1,16.5-25.8,20.5
		c-22.7,8.4-45.7,7.5-68.7,1.4c-0.8-0.2-1.5-0.6-2.3-0.9c-8.1-3.4-15.4-7.6-16.2-17.7C340.5,180.3,347.3,175.9,355.4,171.9z
		 M378.5,82.9c1.3,12.5,3.2,24.7,11.1,34.9c7.7,9.9,20.7,8.3,25.1-2.7c5.1-12.6-0.4-42.1-10.7-51c-3.6-3.1-10.3-5.3-14.6-4.2
		c-3.9,1-7.3,6.7-9.4,11C378.3,74.3,378.9,78.8,378.5,82.9z M397.6,178.1c0-0.2,0-0.5,0-0.7c-6-0.4-12-0.9-18-1.1
		c-8.4-0.4-13.9,6-11,14.1c1.4,4,4.7,8.5,8.4,10.4c12.8,6.6,26.7,7.3,39.7,1.3c4.6-2.1,8.3-8.4,10.3-13.5c2.3-5.9-1.3-10.1-7.9-10.3
		C411.8,177.9,404.7,178.1,397.6,178.1z"/>
	<path class="st0" d="M70,133.9c1.3-1.3,2.5-3.2,4-3.7c8.3-2.6,11.3-5.2,10.5-13.7C83,101.8,80.7,87,77.9,72.4
		c-1.5-7.7-6.8-10.8-14.8-10.3c-20.3,1.3-32.6,13.5-41.1,30.7c-1.8,3.6-3,7.5-5.4,11.1c0-20.2,0-40.5,0-60.7c0-3.3-0.3-6.6-0.9-9.9
		C14.6,27,11.1,23,4.5,21.6c-1.7-0.4-3-2.4-4.5-3.6c1.6-0.9,3.1-2.4,4.8-2.6C17.9,13.7,30.2,9.8,41,1.8c1.6-1.2,4.1-1.1,6.8-1.8
		c0,20.1,0,39.4,0,57.9c7-3.6,13.6-8.7,21-10.5c23.4-5.6,38.7,5.6,42.5,30.1c1.8,11.7,3.3,23.4,4.9,35.1c1.2,8.7,3.8,16.2,14.2,17.8
		c1.1,0.2,1.9,2.6,3.5,5c-22,0-42.5,0-62.9,0C70.7,134.9,70.3,134.4,70,133.9z"/>
	<path class="st0" d="M182.9,134.1c-35.1,1.6-58.7-27.8-47.7-59.5c6.4-18.4,25.7-30,48.1-29c25.2,1.2,43.1,15.5,46,36.7
		C233.2,111.7,214.5,132.6,182.9,134.1z M162,75.6c1.1,16.1,2.9,30,10.6,42.3c3.3,5.3,7.8,9.6,14.7,8.5c7.2-1.2,10.8-6.7,11.6-13.1
		c1-7.4,1.3-15.2,0.4-22.6c-1.5-11.7-3.7-23.5-12.3-32.6c-7.8-8.3-18.2-6.3-22.2,4.4C163.1,67.2,162.7,72.4,162,75.6z"/>
	<path class="st0" d="M334,89.7c0,26.4-19.5,44.3-48.2,44.4c-28.9,0.1-49-18.2-48.8-44.5c0.2-26.1,20-44,48.7-44
		C314.4,45.5,334,63.5,334,89.7z M304.8,102.3c-0.9-15.6-3-29-10.6-40.8c-3.3-5.3-7.9-9.5-14.8-8.2c-6.8,1.2-10.1,6.3-11.3,12.6
		c-0.9,5-1.6,10.2-1.2,15.2c0.9,13.7,3.2,27.1,11.5,38.6c3.3,4.5,7.6,7.8,13.6,6.7c5.9-1.1,9.3-5.3,10.8-10.7
		C304,110.7,304.3,105.5,304.8,102.3z"/>
	<path class="st0" d="M521.7,134c-20.6,0-41.1,0-61.7,0c-0.4-0.5-0.9-1-1.3-1.5c1.4-1.3,2.7-3.5,4.3-3.8c7.6-1.6,11.6-6.6,11.7-13.8
		c0.3-26.3,0.3-52.6,0-78.9c-0.1-7.5-3.9-12.9-12.1-14.1c-1.3-0.2-2.3-2.1-3.4-3.2c1.2-1,2.4-2.7,3.7-2.9
		c13.4-1.2,25.6-5.3,36.6-13.3c1.5-1.1,3.7-1.1,6.8-1.9c0,3.3,0,5.7,0,8.1c0,32.4,0,64.9,0,97.3c0,3.4,0.3,6.8,0.8,10.1
		c0.9,6.8,4.6,11,11.5,12.5c1.7,0.3,3.1,2.1,4.6,3.2C522.7,132.6,522.2,133.3,521.7,134z"/>
	<path class="st0" d="M525.1,65.2c2.6-2.2,4-4.5,5.7-4.6c13.2-1.4,25.3-5.2,36.2-13c1.7-1.2,4.3-1.3,7.5-2.1c0,19.2,0,37.2,0,55.1
		c0,4.6-0.1,9.1,0.2,13.7c0.6,8.8,3.4,11.9,11.7,14.5c1.6,0.5,2.7,2.4,4.1,3.7c-0.4,0.5-0.8,1.1-1.2,1.6c-20.7,0-41.3,0-62,0
		c-0.4-0.5-0.8-1.1-1.2-1.6c1.4-1.3,2.5-3.2,4.1-3.7c8.8-2.5,12.3-6,12.7-15.3c0.5-10.5,0.5-21,0.1-31.5
		C542.6,71.7,539,68.4,525.1,65.2z"/>
	<path class="st0" d="M62.9,135.4c-15.9,0-31.8,0-47.6,0c-4-20.8,13.3-51.7,32.7-59.6c0,12.4-0.3,25,0.1,37.6
		c0.3,10.7,2.9,13.6,12.8,16.9c1.4,0.5,2.4,2.4,3.6,3.7C64,134.4,63.4,134.9,62.9,135.4z"/>
	<path class="st1" d="M557.8,3.9c10.3,0,18.3,7.4,18.4,17.1c0.1,9.9-8.2,17.7-18.7,17.6c-10-0.1-18.3-8.1-18.3-17.5
		C539.3,11.6,547.6,4,557.8,3.9z"/>
</g>
</svg>
