<svg height="67.674" viewBox="0 0 176.787 67.674" width="176.787" xmlns="http://www.w3.org/2000/svg"><g fill="#fff"><path d="m115.968 44.079h.348v-43.979h-8.316v36.394c.418 6.506 5.706 7.446 7.968 7.585" transform="translate(-70.423 -.065)"/><path d="m429.768 65.271h.348v-32.671h-8.316v25.086c.418 6.506 5.706 7.446 7.968 7.585" transform="translate(-275.04 -21.257)"/><path d="m184.109 33h-8.316v18.441a6.089 6.089 0 1 1 -12.178 0v-11.517-6.824h-8.315v19.558c.1 7.55 6.506 13.639 14.4 13.639a14.122 14.122 0 0 0 14.4-13.848 1.184 1.184 0 0 0 -.035-.348.034.034 0 0 1 .035-.035z" transform="translate(-101.265 -21.518)"/><path d="m270.566 39.424a8.954 8.954 0 0 1 7.933 4.8h-15.866a9.02 9.02 0 0 1 7.933-4.8m12.352 11.9h3.271a16.034 16.034 0 0 0 .244-2.923c0-9.22-7.1-16.7-15.866-16.7s-15.867 7.48-15.867 16.699 7.1 16.7 15.866 16.7a15.836 15.836 0 0 0 14.022-8.838h-9.742a8.969 8.969 0 0 1 -12.734-4.941h20.807z" transform="translate(-166.08 -20.67)"/><path d="m429.99 4.345a4.245 4.245 0 1 1 -4.245-4.245 4.262 4.262 0 0 1 4.245 4.245" transform="translate(-274.844 -.065)"/><path d="m16.075 35.485a7.8 7.8 0 0 1 -7.794-7.272v-1.043a7.8 7.8 0 1 1 7.794 8.316m0-24.112a14.936 14.936 0 0 0 -7.794 2.192v-13.466h-8.281v36.394c.418 6.472 5.706 7.446 7.968 7.55h.348v-2.3a14.936 14.936 0 0 0 7.794 2.192c8.559 0 15.518-7.307 15.518-16.283-.035-8.977-6.994-16.283-15.553-16.283" transform="translate(0 -.065)"/><path d="m368.815 6.363v-6.263h-6.263c-2.262.1-7.55 1.079-7.968 7.55v3.65h-5.984v6.263h5.984v18.931c.418 6.472 5.706 7.446 7.968 7.55h.348v-25.921-.557h5.88v-6.266h-5.915v-4.937z" transform="translate(-227.309 -.065)"/><path d="m467.73 18.51v-.557h5.6v-6.262h-5.63v-11.691h-.348c-2.262.1-7.55 1.079-7.968 7.55v4.175h-3.484v6.263h3.479v18.406c.418 6.472 5.706 7.446 7.968 7.55h5.845v-6.82h-3.131a2.346 2.346 0 0 1 -2.366-2.366v-16.248z" transform="translate(-297.275)"/><path d="m5.153 167.394h4.523l-2.261-6.094zm-2.853 4.558 4.558-11.552h1.253l4.419 11.552h-1.114l-1.322-3.619h-5.289l-1.357 3.619z" transform="translate(-1.5 -104.591)"/><path d="m66.874 167.985a3.686 3.686 0 0 0 .348 1.322 2.23 2.23 0 0 0 .731.87 3.025 3.025 0 0 0 1.009.487 4.767 4.767 0 0 0 1.253.139 3.634 3.634 0 0 0 1.322-.209 2.481 2.481 0 0 0 .9-.522 1.884 1.884 0 0 0 .522-.765 2.614 2.614 0 0 0 .174-.9 1.727 1.727 0 0 0 -.313-1.079 2.235 2.235 0 0 0 -.8-.7 4.638 4.638 0 0 0 -1.113-.418c-.418-.1-.87-.209-1.287-.313-.452-.1-.87-.209-1.287-.348a3.712 3.712 0 0 1 -1.113-.557 2.884 2.884 0 0 1 -.8-.9 2.839 2.839 0 0 1 -.313-1.392 2.729 2.729 0 0 1 .244-1.148 3.4 3.4 0 0 1 .731-1.009 3.729 3.729 0 0 1 1.218-.7 5.7 5.7 0 0 1 3.41.035 3.253 3.253 0 0 1 1.218.731 3.379 3.379 0 0 1 .974 2.436h-1.043a2.335 2.335 0 0 0 -.244-1.148 2.376 2.376 0 0 0 -.626-.8 2.762 2.762 0 0 0 -.9-.452 3.592 3.592 0 0 0 -1.044-.139 3.324 3.324 0 0 0 -1.392.244 2.16 2.16 0 0 0 -.9.591 1.962 1.962 0 0 0 -.452.835 1.991 1.991 0 0 0 -.035.9 1.6 1.6 0 0 0 .452.9 3.112 3.112 0 0 0 .87.557 5.54 5.54 0 0 0 1.148.348c.418.1.835.174 1.253.278s.835.209 1.253.348a3.515 3.515 0 0 1 1.079.557 2.339 2.339 0 0 1 .731.9 3.3 3.3 0 0 1 .278 1.392 3.052 3.052 0 0 1 -1.113 2.505 4.865 4.865 0 0 1 -3.131.87 5.244 5.244 0 0 1 -1.67-.244 3.206 3.206 0 0 1 -1.322-.7 3 3 0 0 1 -.87-1.183 3.918 3.918 0 0 1 -.313-1.635h.974z" transform="translate(-42.971 -104.069)"/><path d="m104.77 160.4h1.079v6.889a4.861 4.861 0 0 0 .8 3.1 3.191 3.191 0 0 0 2.575.939 4.112 4.112 0 0 0 1.566-.244 2.341 2.341 0 0 0 1.044-.765 3.483 3.483 0 0 0 .591-1.253 8.75 8.75 0 0 0 .174-1.774v-6.892h1.079v7.2a4.879 4.879 0 0 1 -1.113 3.445 5.345 5.345 0 0 1 -6.75-.035 4.938 4.938 0 0 1 -1.113-3.445v-7.165z" transform="translate(-68.271 -104.591)"/><path d="m147.253 167.394h4.523l-2.262-6.054zm-2.853 4.558 4.558-11.552h1.253l4.419 11.552h-1.113l-1.322-3.619h-5.255l-1.357 3.619z" transform="translate(-94.158 -104.591)"/><path d="m209.253 167.394h4.523l-2.262-6.054zm-2.853 4.558 4.558-11.552h1.253l4.419 11.552h-1.113l-1.322-3.619h-5.255l-1.357 3.619z" transform="translate(-134.586 -104.591)"/><path d="m256.668 163.219a3.168 3.168 0 0 0 -1.253-2.088 4.168 4.168 0 0 0 -2.4-.626 3.755 3.755 0 0 0 -1.809.418 4.25 4.25 0 0 0 -1.253 1.113 5.846 5.846 0 0 0 -.731 1.635 8.784 8.784 0 0 0 -.244 1.948 8.4 8.4 0 0 0 .209 1.879 5.086 5.086 0 0 0 .661 1.67 3.717 3.717 0 0 0 1.253 1.183 3.805 3.805 0 0 0 1.983.452 3.485 3.485 0 0 0 1.357-.244 3.741 3.741 0 0 0 1.079-.661 3.684 3.684 0 0 0 .766-1.009 4.937 4.937 0 0 0 .487-1.253h1.148a7.586 7.586 0 0 1 -.557 1.566 4.489 4.489 0 0 1 -.974 1.322 5.173 5.173 0 0 1 -1.461.9 5.855 5.855 0 0 1 -2.018.313 5.2 5.2 0 0 1 -2.3-.487 4.424 4.424 0 0 1 -1.566-1.322 5.227 5.227 0 0 1 -.87-1.948 9.953 9.953 0 0 1 -.278-2.331 8.3 8.3 0 0 1 .418-2.818 5.05 5.05 0 0 1 1.148-1.879 4.12 4.12 0 0 1 1.7-1.044 6.956 6.956 0 0 1 2.122-.313 4.89 4.89 0 0 1 1.635.244 3.59 3.59 0 0 1 1.357.7 4.485 4.485 0 0 1 .974 1.148 5.18 5.18 0 0 1 .522 1.566h-1.113z" transform="translate(-161.646 -104.069)"/><path d="m291.853 167.394h4.523l-2.262-6.054zm-2.853 4.558 4.558-11.552h1.253l4.419 11.552h-1.113l-1.322-3.619h-5.255l-1.357 3.619z" transform="translate(-188.446 -104.591)"/><path d="m333.113 171.012h2.609a9.028 9.028 0 0 0 1.392-.1 4.264 4.264 0 0 0 1.322-.452 2.624 2.624 0 0 0 .939-.8 4.679 4.679 0 0 0 .591-1.079 6.94 6.94 0 0 0 .313-1.218 7.6 7.6 0 0 0 .1-1.253c0-.418-.035-.835-.07-1.287a5.506 5.506 0 0 0 -.313-1.253 3.369 3.369 0 0 0 -.626-1.079 2.941 2.941 0 0 0 -1.009-.8 3.316 3.316 0 0 0 -1.218-.348 9.8 9.8 0 0 0 -1.427-.07h-2.609zm-1.113.939v-11.551h3.966a8.476 8.476 0 0 1 .939.035 7.172 7.172 0 0 1 .9.1 3.629 3.629 0 0 1 .87.278 4.921 4.921 0 0 1 .835.452 3.694 3.694 0 0 1 .939 1.009 6.79 6.79 0 0 1 .592 1.253 9.547 9.547 0 0 1 .313 1.357 8.277 8.277 0 0 1 .1 1.253c0 .383-.035.765-.07 1.183a6.113 6.113 0 0 1 -.244 1.148 5.768 5.768 0 0 1 -.418 1.079 3.53 3.53 0 0 1 -.661.939 3.355 3.355 0 0 1 -.87.731 5.137 5.137 0 0 1 -1.009.418 5.382 5.382 0 0 1 -1.079.209c-.383.035-.765.07-1.148.07h-3.955z" transform="translate(-216.485 -104.591)"/><path d="m374.6 171.952v-11.552h7.689v.9h-6.611v4.175h5.95v.939h-5.95v4.593h6.785v.939z" transform="translate(-244.263 -104.591)"/><path d="m411.9 171.952v-11.552h1.67l3.793 10.195h.035l3.722-10.195h1.635v11.552h-1.079v-10.3h-.035l-3.792 10.3h-1.044l-3.793-10.3h-.035v10.3z" transform="translate(-268.585 -104.591)"/><path d="m160.33 55.809h1.079v11.552h-1.079z"/><path d="m481.553 167.394h4.523l-2.262-6.054zm-2.853 4.558 4.558-11.552h1.253l4.419 11.552h-1.113l-1.322-3.619h-5.255l-1.357 3.619z" transform="translate(-312.142 -104.591)"/></g></svg>